<svg width="64" height="64" viewBox="0 0 64 64" fill="none" xmlns="http://www.w3.org/2000/svg">
<path fill-rule="evenodd" clip-rule="evenodd" d="M10.4341 20.8849C10.48 20.988 10.5252 21.0897 10.5695 21.1897C11.1711 22.5481 11.5112 24.6879 11.7096 26.6912C11.9046 28.6599 11.9742 30.6361 11.979 31.9166C11.9792 31.9245 11.9793 31.9324 11.9793 31.9403C11.9793 31.96 11.9793 31.9799 11.9793 32C11.9793 32.0201 11.9793 32.04 11.9793 32.0597C11.9793 32.0676 11.9792 32.0755 11.979 32.0834C11.9742 33.3639 11.9046 35.3401 11.7096 37.3088C11.5112 39.3121 11.1711 41.4519 10.5695 42.8104C10.5252 42.9103 10.48 43.012 10.4341 43.1151C10.129 43.8008 9.79465 44.5519 9.52011 45.314C9.20013 46.2021 9 47.0048 9 47.638C9 48.2419 9.17211 48.5351 9.44646 48.7094C9.80069 48.9343 10.5773 49.1291 12.1546 48.8917C12.9913 48.7657 13.8085 48.6395 14.614 48.515C20.0602 47.6735 24.9731 46.9144 31.7968 46.8879C31.8093 46.8874 31.8219 46.8872 31.8345 46.8872C31.8883 46.8872 31.942 46.8872 31.9956 46.8873C32.0521 46.8872 32.1087 46.8872 32.1655 46.8872C32.1785 46.8872 32.1913 46.8874 32.2041 46.8879C39.0274 46.9145 43.9401 47.6735 49.3861 48.515C50.1915 48.6395 51.0087 48.7657 51.8454 48.8917C53.4227 49.1291 54.1993 48.9343 54.5535 48.7094C54.8279 48.5351 55 48.2419 55 47.638C55 47.0048 54.7999 46.2021 54.4799 45.314C54.2053 44.5519 53.871 43.8008 53.5659 43.1151C53.52 43.012 53.4747 42.9103 53.4305 42.8104C53.2068 42.3054 53.4349 41.7147 53.9399 41.4911C54.4449 41.2675 55.0355 41.4955 55.2592 42.0005C55.3011 42.0952 55.3449 42.1935 55.3901 42.295C55.6933 42.976 56.0601 43.7997 56.3615 44.6361C56.7036 45.5855 57 46.6516 57 47.638C57 48.6537 56.6756 49.731 55.6258 50.3977C54.6559 51.0136 53.2808 51.1303 51.5477 50.8694C50.7026 50.7422 49.8806 50.6153 49.0734 50.4906C43.5767 49.6419 38.7656 48.899 31.9957 48.8873C25.2303 48.8996 20.421 49.6422 14.9266 50.4906C14.1194 50.6153 13.2974 50.7422 12.4523 50.8694C10.7192 51.1303 9.34414 51.0136 8.37423 50.3977C7.32444 49.7309 7 48.6537 7 47.638C7 46.6516 7.29643 45.5855 7.63851 44.636C7.93987 43.7996 8.3067 42.9759 8.60998 42.2948C8.65514 42.1934 8.6989 42.0952 8.74082 42.0005C9.19856 40.9669 9.52048 39.12 9.71935 37.1117C9.91108 35.1755 9.97717 33.2229 9.97926 32C9.97717 30.7771 9.91108 28.8245 9.71935 26.8883C9.52048 24.88 9.19856 23.0331 8.74082 21.9995C8.6989 21.9048 8.65515 21.8066 8.60998 21.7052C8.3067 21.0241 7.93987 20.2004 7.63851 19.364C7.29643 18.4145 7 17.3484 7 16.362C7 15.3463 7.32444 14.2691 8.37423 13.6023C9.34414 12.9864 10.7192 12.8697 12.4523 13.1306C13.2974 13.2578 14.1194 13.3847 14.9266 13.5094C20.4233 14.3582 25.2344 15.1011 32.0043 15.1127C38.7697 15.1004 43.5791 14.3578 49.0734 13.5094C49.8806 13.3848 50.7026 13.2578 51.5477 13.1306C53.2808 12.8697 54.6559 12.9864 55.6258 13.6024C56.6756 14.2691 57 15.3463 57 16.362C57 17.3484 56.7036 18.4145 56.3615 19.364C56.0601 20.2004 55.6933 21.0241 55.3901 21.7051C55.3449 21.8065 55.3011 21.9048 55.2592 21.9995C54.8014 23.0331 54.4795 24.88 54.2807 26.8883C54.0889 28.8245 54.0228 30.7771 54.0207 32C54.0229 33.2835 54.0956 35.3687 54.3096 37.395C54.3676 37.9442 53.9694 38.4365 53.4202 38.4945C52.871 38.5525 52.3787 38.1543 52.3207 37.605C52.1025 35.5394 52.0261 33.4274 52.021 32.0834C52.0208 32.0756 52.0207 32.0677 52.0207 32.0597C52.0207 32.04 52.0207 32.0201 52.0207 32C52.0207 31.9799 52.0207 31.96 52.0207 31.9403C52.0207 31.9324 52.0208 31.9245 52.021 31.9166C52.0258 30.6361 52.0954 28.6599 52.2904 26.6912C52.4888 24.6879 52.8289 22.5481 53.4305 21.1897C53.4747 21.0897 53.52 20.9881 53.5659 20.8849C53.871 20.1993 54.2053 19.4481 54.4799 18.6861C54.7999 17.7979 55 16.9952 55 16.362C55 15.7581 54.8279 15.4649 54.5535 15.2907C54.1993 15.0657 53.4227 14.8709 51.8454 15.1083C51.0087 15.2343 50.1916 15.3605 49.3861 15.485C43.9398 16.3265 39.0269 17.0856 32.2032 17.1121C32.1907 17.1126 32.1781 17.1128 32.1655 17.1128C32.1117 17.1128 32.058 17.1128 32.0044 17.1127C31.9479 17.1128 31.8913 17.1128 31.8345 17.1128C31.8215 17.1128 31.8087 17.1126 31.7959 17.1121C24.9726 17.0856 20.0599 16.3265 14.6139 15.485C13.8084 15.3605 12.9913 15.2343 12.1546 15.1083C10.5773 14.8709 9.80069 15.0657 9.44646 15.2906C9.17211 15.4649 9 15.7581 9 16.362C9 16.9952 9.20013 17.7979 9.52011 18.686C9.79465 19.4481 10.129 20.1992 10.4341 20.8849Z" fill="white"/>
<path fill-rule="evenodd" clip-rule="evenodd" d="M21.0568 46.0175C18.6165 46.3138 16.2071 46.8414 14.9027 47.4153C14.3972 47.6377 13.8071 47.4083 13.5847 46.9027C13.3623 46.3972 13.5918 45.8071 14.0973 45.5847C15.6777 44.8893 18.3243 44.3346 20.8157 44.032C22.0767 43.8789 23.332 43.7862 24.4354 43.7755C25.5154 43.765 26.5306 43.8313 27.2682 44.0366C27.8002 44.1847 28.1115 44.7361 27.9634 45.2682C27.8153 45.8002 27.2639 46.1115 26.7318 45.9634C26.2754 45.8363 25.4917 45.7653 24.4548 45.7754C23.4413 45.7853 22.2617 45.8711 21.0568 46.0175Z" fill="white"/>
</svg>
