<svg width="64" height="64" viewBox="0 0 64 64" fill="none" xmlns="http://www.w3.org/2000/svg">
<path fill-rule="evenodd" clip-rule="evenodd" d="M13.2406 10.4911C13.31 9.94321 13.8104 9.55532 14.3583 9.62474L19.8147 10.3161C20.3626 10.3855 20.7505 10.8859 20.6811 11.4338C20.6117 11.9817 20.1112 12.3696 19.5633 12.3002L15.099 11.7346L10.5739 47.449L42.0068 51.4316L42.5665 47.0141C42.7054 45.9183 43.7063 45.1426 44.8021 45.2814L49.0836 45.8239L52.7976 16.511L27.9959 13.3686C27.448 13.2992 27.0601 12.7988 27.1295 12.2509C27.1989 11.703 27.6994 11.3151 28.2473 11.3845L54.0411 14.6526C54.589 14.722 54.9769 15.2225 54.9074 15.7704L50.9421 47.0673C50.9092 47.3268 50.776 47.563 50.5711 47.7254L43.4943 53.3332C43.2835 53.5002 43.0143 53.5753 42.7475 53.5415L10.3225 49.4332C9.22675 49.2943 8.45097 48.2935 8.58981 47.1977L13.2406 10.4911ZM47.4651 47.6348L44.5507 47.2655L44.1734 50.2432L47.4651 47.6348Z" fill="white"/>
<path fill-rule="evenodd" clip-rule="evenodd" d="M19.8573 21.9135C19.9267 21.3656 20.4272 20.9777 20.9751 21.0471L26.9275 21.8013C27.4754 21.8707 27.8633 22.3711 27.7938 22.919C27.7244 23.4669 27.224 23.8548 26.6761 23.7854L20.7237 23.0312C20.1758 22.9618 19.7879 22.4614 19.8573 21.9135ZM30.274 23.2333C30.3434 22.6854 30.8439 22.2975 31.3918 22.3669L41.3125 23.6239C41.8604 23.6933 42.2483 24.1937 42.1788 24.7416C42.1094 25.2895 41.609 25.6774 41.0611 25.608L31.1404 24.351C30.5925 24.2816 30.2046 23.7812 30.274 23.2333Z" fill="white"/>
<path fill-rule="evenodd" clip-rule="evenodd" d="M19.2917 26.3779C19.3611 25.83 19.8615 25.4421 20.4094 25.5115L37.7706 27.7112C38.3185 27.7807 38.7064 28.2811 38.637 28.829C38.5676 29.3769 38.0671 29.7648 37.5192 29.6954L20.158 27.4957C19.6101 27.4263 19.2222 26.9258 19.2917 26.3779Z" fill="white"/>
<path fill-rule="evenodd" clip-rule="evenodd" d="M18.726 30.8422C18.7954 30.2943 19.2959 29.9064 19.8438 29.9758L34.2288 31.7984C34.7767 31.8678 35.1646 32.3683 35.0952 32.9162C35.0257 33.4641 34.5253 33.852 33.9774 33.7825L19.5924 31.9599C19.0445 31.8905 18.6566 31.3901 18.726 30.8422ZM38.3194 33.3247C38.3888 32.7768 38.8892 32.3889 39.4371 32.4583L41.1733 32.6783C41.7212 32.7477 42.1091 33.2481 42.0396 33.796C41.9702 34.3439 41.4698 34.7318 40.9219 34.6624L39.1857 34.4424C38.6378 34.373 38.25 33.8726 38.3194 33.3247Z" fill="white"/>
<path fill-rule="evenodd" clip-rule="evenodd" d="M18.1604 35.3063C18.2298 34.7584 18.7303 34.3705 19.2782 34.4399L40.6076 37.1424C41.1555 37.2118 41.5434 37.7123 41.474 38.2602C41.4046 38.8081 40.9041 39.196 40.3562 39.1265L19.0268 36.4241C18.4789 36.3546 18.091 35.8542 18.1604 35.3063Z" fill="white"/>
<path fill-rule="evenodd" clip-rule="evenodd" d="M25.1521 7.96855C24.6185 7.90093 24.114 8.12174 23.796 8.51437C23.627 8.72312 23.5121 8.97947 23.4755 9.26811C23.3713 10.09 23.9532 10.8406 24.775 10.9447C25.4035 11.0244 25.9927 10.7028 26.2808 10.1757C26.3675 10.0169 26.4272 9.83884 26.4517 9.6452C26.5558 8.82334 25.974 8.07268 25.1521 7.96855ZM22.4827 6.98764C23.2205 6.24734 24.2833 5.84248 25.4035 5.98441C27.3212 6.22738 28.6788 7.97892 28.4358 9.89659C28.3952 10.2171 28.312 10.5232 28.1924 10.8091C28.2317 11.1588 28.2304 11.518 28.1844 11.8807C27.872 14.3463 25.6201 16.0918 23.1545 15.7794C22.8052 15.7351 22.4697 15.6517 22.1522 15.5339L21.4227 16.5459C21.0997 16.994 20.4747 17.0953 20.0267 16.7724C19.5787 16.4494 19.4773 15.8244 19.8003 15.3764L20.4781 14.4361C20.4134 14.3688 20.3509 14.2996 20.2906 14.2286C19.5027 13.3008 19.0905 12.0544 19.2558 10.7494C19.4893 8.90659 20.8056 7.46807 22.4827 6.98764ZM21.5254 10.1166C21.3796 10.3834 21.2804 10.6813 21.2399 11.0008C21.1481 11.7258 21.3753 12.4162 21.8151 12.934C21.9755 13.1229 22.1635 13.2879 22.3736 13.4225C22.6752 13.6155 23.0237 13.7468 23.4059 13.7953C24.2972 13.9082 25.1382 13.5371 25.6648 12.8866C25.2991 12.9614 24.9149 12.9785 24.5236 12.9289C22.9824 12.7336 21.8029 11.5638 21.5254 10.1166Z" fill="white"/>
</svg>
