<svg width="64" height="64" viewBox="0 0 64 64" fill="none" xmlns="http://www.w3.org/2000/svg">
<path fill-rule="evenodd" clip-rule="evenodd" d="M10.9513 41.281C10.1702 40.4999 10.1703 39.2336 10.9513 38.4525L32.9745 16.4294C33.3397 16.0641 33.832 15.8544 34.3484 15.844L48.7812 15.5534C49.9171 15.5305 50.8439 16.4573 50.821 17.5932L50.5304 32.026C50.52 32.5424 50.3102 33.0347 49.945 33.3999L27.9219 55.4231C27.1408 56.2041 25.8745 56.2041 25.0934 55.4231L10.9513 41.281ZM34.3887 17.8436L12.3655 39.8668L26.5076 54.0089L48.5308 31.9857L48.8214 17.553L34.3887 17.8436Z" fill="white"/>
<path fill-rule="evenodd" clip-rule="evenodd" d="M43.1247 24.664C43.7104 24.0782 43.7104 23.1284 43.1247 22.5426C42.5389 21.9569 41.5891 21.9569 41.0033 22.5426C40.4175 23.1284 40.4175 24.0782 41.0033 24.664C41.5891 25.2497 42.5389 25.2497 43.1247 24.664ZM43.8318 25.3711C44.8081 24.3948 44.8081 22.8118 43.8318 21.8355C42.8555 20.8592 41.2725 20.8592 40.2962 21.8355C39.3199 22.8118 39.3199 24.3948 40.2962 25.3711C41.2725 26.3474 42.8555 26.3474 43.8318 25.3711Z" fill="white"/>
<path d="M23.762 40.7713C23.762 40.7713 23.7047 40.7862 23.5901 40.8159C23.4756 40.8456 23.3334 40.8944 23.1637 40.9623C22.9898 41.0259 22.8116 41.1065 22.6292 41.2041C22.4467 41.3017 22.2876 41.4183 22.1519 41.5541C22.0458 41.6602 21.9758 41.7641 21.9419 41.8659C21.9079 41.9678 21.9313 42.059 22.0119 42.1396C22.1307 42.2584 22.2898 42.269 22.4892 42.1714C22.6886 42.0653 22.9601 41.9253 23.3037 41.7514C23.6686 41.5562 24.008 41.412 24.322 41.3186C24.6359 41.2253 24.935 41.2105 25.2193 41.2741C25.4993 41.3335 25.7814 41.5053 26.0657 41.7896C26.3372 42.0611 26.5175 42.339 26.6066 42.6233C26.6915 42.9033 26.7063 43.1812 26.6512 43.4569C26.596 43.7327 26.4921 43.9979 26.3394 44.2524C26.1824 44.5027 25.9978 44.734 25.7857 44.9461C25.5693 45.1625 25.3211 45.3682 25.0411 45.5634C24.7611 45.7501 24.4726 45.9155 24.1756 46.0598C23.8744 46.1998 23.5795 46.308 23.291 46.3844L22.7374 44.7615C22.7374 44.7615 22.8052 44.7446 22.941 44.7106C23.0768 44.6767 23.2465 44.6215 23.4501 44.5452C23.6538 44.4688 23.8659 44.3712 24.0865 44.2524C24.3114 44.1294 24.5108 43.9809 24.6847 43.807C24.8205 43.6712 24.8969 43.5609 24.9138 43.476C24.9308 43.3827 24.9096 43.3063 24.8502 43.2469C24.7611 43.1578 24.6465 43.1366 24.5065 43.1833C24.3623 43.2257 24.1926 43.3021 23.9974 43.4124C23.8023 43.5142 23.5838 43.6266 23.3419 43.7497C22.8074 44.0127 22.3555 44.1421 21.9864 44.1379C21.6131 44.1294 21.2609 43.9597 20.93 43.6288C20.5948 43.2936 20.3933 42.9351 20.3254 42.5533C20.2575 42.1714 20.2936 41.7959 20.4336 41.4268C20.5736 41.0492 20.7921 40.7119 21.0891 40.415C21.3097 40.1943 21.5494 40.0098 21.8082 39.8613C22.067 39.7043 22.3237 39.5749 22.5783 39.4731C22.8371 39.367 23.0683 39.2801 23.2719 39.2122L23.762 40.7713Z" fill="white"/>
<path d="M24.4086 37.1717L25.7959 35.7844L31.7526 38.8645L30.4925 40.1246L29.3343 39.5137L28.1315 40.7165L28.7488 41.8683L27.4824 43.1348L24.4086 37.1717ZM28.3097 38.8836L26.3178 37.6936L27.4887 39.7046L28.3097 38.8836Z" fill="white"/>
<path d="M32.128 38.4891L27.6096 33.9707L28.8506 32.7297L32.2871 36.1663L34.3363 34.1171L35.4182 35.1989L32.128 38.4891Z" fill="white"/>
<path d="M37.989 30.4645L39.0709 31.5464L35.8507 34.7665L31.3323 30.2481L34.4952 27.0852L35.577 28.1671L33.6551 30.089L34.2915 30.7254L35.9334 29.0835L36.9389 30.089L35.297 31.7309L36.0098 32.4437L37.989 30.4645Z" fill="white"/>
<path fill-rule="evenodd" clip-rule="evenodd" d="M37.619 15.971C38.6942 18.8992 40.8006 21.6328 42.4175 23.2497L41.7104 23.9569C40.0275 22.2739 37.8206 19.4214 36.6802 16.3157C35.537 13.2023 35.4365 9.72469 38.1749 6.98633L38.882 7.69344C36.5292 10.0462 36.5466 13.0504 37.619 15.971Z" fill="white"/>
<path fill-rule="evenodd" clip-rule="evenodd" d="M55.6684 29.488C53.7778 29.9768 51.7645 29.9389 50.4786 29.7552L50.62 28.7653C51.809 28.9351 53.6847 28.968 55.4181 28.5198C57.155 28.0708 58.6506 27.1687 59.275 25.5452L60.2083 25.9042C59.4185 27.9577 57.5553 29.0002 55.6684 29.488Z" fill="white"/>
</svg>
