<svg width="60" height="60" viewBox="0 0 60 60" fill="none" xmlns="http://www.w3.org/2000/svg">
<path d="M14.5404 37.9908C14.5095 37.9308 14.4787 37.8701 14.4485 37.81C14.479 37.8701 14.5095 37.9305 14.5404 37.9908Z" fill="white"/>
<path d="M14.3622 37.6358C14.333 37.5761 14.3038 37.516 14.2753 37.456C14.3038 37.516 14.3327 37.5757 14.3622 37.6358Z" fill="white"/>
<path d="M14.1906 37.2745C14.1634 37.2155 14.1361 37.1564 14.1096 37.097C14.1361 37.1564 14.1634 37.2155 14.1906 37.2745Z" fill="white"/>
<path d="M14.0256 36.9051C14.0009 36.848 13.976 36.7909 13.9517 36.7335C13.976 36.7909 14.0009 36.848 14.0256 36.9051Z" fill="white"/>
<path d="M14.7261 38.3401C14.6933 38.2801 14.6611 38.2194 14.6293 38.1587C14.6611 38.2191 14.6933 38.2798 14.7261 38.3401Z" fill="white"/>
<path d="M12.6815 28.319C12.6914 28.2225 12.7016 28.126 12.7121 28.0299C12.7016 28.1264 12.6911 28.2225 12.6815 28.319Z" fill="white"/>
<path d="M25.1687 41.6186C26.4175 41.6186 27.6303 41.4644 28.7899 41.1753C27.941 38.735 28.8837 35.9522 31.1858 34.5678C33.2497 33.3265 35.7947 33.5772 37.5656 35.0075C39.1629 32.6312 40.0948 29.771 40.0948 26.6925C40.0948 20.1779 35.9213 14.6395 30.1024 12.6025C30.2576 12.6031 30.4128 12.6064 30.5673 12.611C30.379 12.6048 30.1903 12.6012 30.0003 12.6012C28.2419 12.6012 26.5448 12.8627 24.9449 13.3477C28.4552 13.9859 31.3926 16.2673 32.9315 19.3658C34.8152 19.4813 36.3692 20.9749 36.5074 22.9089C36.6373 24.7254 35.4757 26.3348 33.8033 26.8408C32.6601 31.7853 28.2294 35.4708 22.9378 35.4708C18.3099 35.4708 14.3412 32.6522 12.6533 28.638C12.6186 29.0875 12.6005 29.5419 12.6005 30.0007C12.6005 32.3038 13.0491 34.5015 13.8618 36.5136C13.8421 36.4644 13.8211 36.4152 13.8018 36.3656C16.5397 39.5799 20.6159 41.6186 25.1687 41.6186Z" fill="white"/>
<path d="M31.955 12.7111C37.8845 15.0277 42.0852 20.7958 42.0852 27.5456C42.0852 31.0329 40.9633 34.2578 39.0615 36.8805C40.3356 39.4562 39.4415 42.6207 36.9352 44.1278C34.5875 45.5397 31.6183 45.0199 29.873 43.0312C28.6829 43.315 27.4413 43.4666 26.1639 43.4666C21.8671 43.4666 17.9686 41.7639 15.1044 38.9972C18.153 44.0333 23.6836 47.3995 30 47.3995C39.6095 47.3995 47.3991 39.6095 47.3991 30.001C47.3995 21.0514 40.6437 13.6827 31.955 12.7111Z" fill="white"/>
<path d="M15.03 38.8706C14.9574 38.7486 14.8862 38.6252 14.8163 38.5012C14.8862 38.6252 14.9574 38.7486 15.03 38.8706Z" fill="white"/>
<path d="M22.2408 34.1767C26.8802 34.1767 30.8128 31.1547 32.1797 26.9721C30.422 26.7358 29.0104 25.294 28.8785 23.4549C28.7433 21.5636 30.0079 19.896 31.7922 19.4659C30.4531 16.4658 27.7425 14.2126 24.4567 13.5035C18.1642 15.6166 13.4796 21.2292 12.7124 28.0293C14.3537 31.6541 18.0024 34.1767 22.2408 34.1767Z" fill="white"/>
<path d="M35.4912 22.9817C35.4859 22.9079 35.4771 22.8354 35.4659 22.7635C35.4754 22.8393 35.4839 22.9148 35.4915 22.9893C35.4912 22.9867 35.4912 22.9844 35.4912 22.9817Z" fill="white"/>
<path d="M32.4015 22.9122C32.2664 22.0469 32.2923 21.1278 32.3572 20.3968C31.9471 20.4453 31.5599 20.5822 31.2163 20.7954C31.3791 21.791 31.5615 23.2931 31.2872 23.805C31.0585 24.2322 30.9834 24.8465 30.9673 25.3905C31.366 25.7029 31.8493 25.9093 32.3737 25.969C32.4809 25.0791 32.5846 24.0852 32.4015 22.9122Z" fill="white"/>
<path d="M30.5795 23.4153C30.8328 22.5694 30.7304 21.8711 30.6592 21.2493C30.6297 21.2805 30.6008 21.312 30.5726 21.3448C30.0817 21.9111 29.8412 22.6347 29.8947 23.3821C29.9331 23.918 30.1227 24.4108 30.4197 24.8206C30.4059 24.3921 30.4367 23.8917 30.5795 23.4153Z" fill="white"/>
<path d="M33.0273 25.9673C33.6176 25.8971 34.161 25.6451 34.5941 25.2445C34.5714 24.8448 34.5878 24.3914 34.6978 23.953C34.9914 22.7819 34.6328 21.917 34.602 21.1308C34.1547 20.7137 33.5726 20.442 32.9344 20.3872C32.9413 21.074 32.9981 21.7749 33.1618 22.2943C33.3613 22.9269 33.215 24.5492 33.0273 25.9673Z" fill="white"/>
<path d="M35.3179 35.4763C34.9179 35.3476 34.4937 35.2794 34.0563 35.2794C33.3213 35.2794 32.5974 35.4809 31.9638 35.8618C31.2548 36.2881 30.7055 36.9059 30.3672 37.6416C30.9266 37.3157 31.6465 36.9814 32.4183 36.8416C33.7141 36.6076 34.5475 35.9786 35.3179 35.4763Z" fill="white"/>
<path d="M36.1569 42.834C36.532 42.6082 36.8617 42.3286 37.14 42.0067C36.4811 42.4976 35.7609 42.9842 35.1689 43.2622C35.5135 43.164 35.8462 43.0207 36.1569 42.834Z" fill="white"/>
<path d="M30.6631 41.5848C31.1297 42.2955 31.7893 42.8271 32.5521 43.1296C33.065 42.8182 33.6944 42.513 34.3709 42.3585C36.0713 41.9703 36.93 40.9266 37.9285 40.3973C37.9528 40.3845 37.9757 40.3733 37.9987 40.3619C38.0013 40.3514 38.0046 40.3409 38.0072 40.33C38.2185 39.4818 38.1529 38.6087 37.8284 37.815C36.9346 38.2737 36.0447 38.8125 35.4748 39.3709C34.7939 40.038 32.5919 40.9098 30.6631 41.5848Z" fill="white"/>
<path d="M37.4543 37.1061C37.1269 36.6087 36.7046 36.1995 36.2186 35.8953C35.0777 36.7373 33.2238 37.9986 32.3812 37.9802C31.6547 37.9645 30.7727 38.3028 30.0535 38.6535C29.9281 39.3692 29.9957 40.0937 30.2474 40.766C31.4618 40.3234 32.8153 39.819 34.2131 38.8104C35.2523 38.0606 36.4746 37.4923 37.4543 37.1061Z" fill="white"/>
<path d="M48 1H12C5.92487 1 1 5.92487 1 12V48C1 54.0751 5.92487 59 12 59H48C54.0751 59 59 54.0751 59 48V12C59 5.92487 54.0751 1 48 1Z" stroke="white" stroke-width="2"/>
</svg>
