<svg width="36" height="36" viewBox="0 0 36 36" fill="none" xmlns="http://www.w3.org/2000/svg">
<path d="M2.54039 25.9908C2.50949 25.9308 2.47869 25.8701 2.44849 25.81C2.47899 25.8701 2.50949 25.9305 2.54039 25.9908Z" fill="#255B8C"/>
<path d="M2.3622 25.6358C2.333 25.5761 2.3038 25.516 2.2753 25.456C2.3038 25.516 2.3327 25.5757 2.3622 25.6358Z" fill="#255B8C"/>
<path d="M2.19062 25.2745C2.16342 25.2155 2.13612 25.1564 2.10962 25.097C2.13612 25.1564 2.16342 25.2155 2.19062 25.2745Z" fill="#255B8C"/>
<path d="M2.02562 24.9051C2.00092 24.848 1.97602 24.7909 1.95172 24.7335C1.97602 24.7909 2.00092 24.848 2.02562 24.9051Z" fill="#255B8C"/>
<path d="M2.7261 26.3401C2.6933 26.2801 2.6611 26.2194 2.6293 26.1587C2.6611 26.2191 2.6933 26.2798 2.7261 26.3401Z" fill="#255B8C"/>
<path d="M0.681519 16.319C0.691419 16.2225 0.701618 16.126 0.712118 16.0299C0.701618 16.1264 0.691119 16.2225 0.681519 16.319Z" fill="#255B8C"/>
<path d="M13.1687 29.6186C14.4175 29.6186 15.6303 29.4644 16.7899 29.1753C15.941 26.735 16.8837 23.9522 19.1858 22.5678C21.2497 21.3265 23.7947 21.5772 25.5656 23.0075C27.1629 20.6312 28.0948 17.771 28.0948 14.6925C28.0948 8.1779 23.9213 2.6395 18.1024 0.602497C18.2576 0.603097 18.4128 0.606396 18.5673 0.610996C18.379 0.604796 18.1903 0.601196 18.0003 0.601196C16.2419 0.601196 14.5448 0.862696 12.9449 1.3477C16.4552 1.9859 19.3926 4.2673 20.9315 7.3658C22.8152 7.4813 24.3692 8.9749 24.5074 10.9089C24.6373 12.7254 23.4757 14.3348 21.8033 14.8408C20.6601 19.7853 16.2294 23.4708 10.9378 23.4708C6.30989 23.4708 2.34119 20.6522 0.653294 16.638C0.618594 17.0875 0.600494 17.5419 0.600494 18.0007C0.600494 20.3038 1.04909 22.5015 1.86179 24.5136C1.84209 24.4644 1.82109 24.4152 1.80179 24.3656C4.53969 27.5799 8.61589 29.6186 13.1687 29.6186Z" fill="#255B8C"/>
<path d="M19.955 0.711105C25.8845 3.02771 30.0852 8.79581 30.0852 15.5456C30.0852 19.0329 28.9633 22.2578 27.0615 24.8805C28.3356 27.4562 27.4415 30.6207 24.9352 32.1278C22.5875 33.5397 19.6183 33.0199 17.873 31.0312C16.6829 31.315 15.4413 31.4666 14.1639 31.4666C9.8671 31.4666 5.9686 29.7639 3.1044 26.9972C6.153 32.0333 11.6836 35.3995 18 35.3995C27.6095 35.3995 35.3991 27.6095 35.3991 18.001C35.3995 9.0514 28.6437 1.68271 19.955 0.711105Z" fill="#255B8C"/>
<path d="M3.02999 26.8706C2.95739 26.7486 2.88618 26.6252 2.81628 26.5012C2.88618 26.6252 2.95739 26.7486 3.02999 26.8706Z" fill="#255B8C"/>
<path d="M10.2408 22.1767C14.8802 22.1767 18.8128 19.1547 20.1797 14.9721C18.422 14.7358 17.0104 13.294 16.8785 11.4549C16.7433 9.5636 18.0079 7.89599 19.7922 7.46589C18.4531 4.46579 15.7425 2.21259 12.4567 1.50349C6.1642 3.61659 1.4796 9.2292 0.712402 16.0293C2.3537 19.6541 6.0024 22.1767 10.2408 22.1767Z" fill="#255B8C"/>
<path d="M23.4912 10.9817C23.4859 10.9079 23.4771 10.8354 23.4659 10.7635C23.4754 10.8393 23.4839 10.9148 23.4915 10.9893C23.4912 10.9867 23.4912 10.9844 23.4912 10.9817Z" fill="#255B8C"/>
<path d="M20.4015 10.9122C20.2664 10.0469 20.2923 9.1278 20.3572 8.3968C19.9471 8.4453 19.5599 8.58221 19.2163 8.79541C19.3791 9.79101 19.5615 11.2931 19.2872 11.805C19.0585 12.2322 18.9834 12.8465 18.9673 13.3905C19.366 13.7029 19.8493 13.9093 20.3737 13.969C20.4809 13.0791 20.5846 12.0852 20.4015 10.9122Z" fill="#255B8C"/>
<path d="M18.5795 11.4153C18.8328 10.5694 18.7304 9.8711 18.6592 9.2493C18.6297 9.2805 18.6008 9.312 18.5726 9.3448C18.0817 9.9111 17.8412 10.6347 17.8947 11.3821C17.9331 11.918 18.1227 12.4108 18.4197 12.8206C18.4059 12.3921 18.4367 11.8917 18.5795 11.4153Z" fill="#255B8C"/>
<path d="M21.0273 13.9673C21.6176 13.8971 22.161 13.6451 22.5941 13.2445C22.5714 12.8448 22.5878 12.3914 22.6978 11.953C22.9914 10.7819 22.6328 9.91701 22.602 9.13081C22.1547 8.71371 21.5726 8.44201 20.9344 8.38721C20.9413 9.07401 20.9981 9.77491 21.1618 10.2943C21.3613 10.9269 21.215 12.5492 21.0273 13.9673Z" fill="#255B8C"/>
<path d="M23.3179 23.4763C22.9179 23.3476 22.4937 23.2794 22.0563 23.2794C21.3213 23.2794 20.5974 23.4809 19.9638 23.8618C19.2548 24.2881 18.7055 24.9059 18.3672 25.6416C18.9266 25.3157 19.6465 24.9814 20.4183 24.8416C21.7141 24.6076 22.5475 23.9786 23.3179 23.4763Z" fill="#255B8C"/>
<path d="M24.1569 30.834C24.532 30.6082 24.8617 30.3286 25.14 30.0067C24.4811 30.4976 23.7609 30.9842 23.1689 31.2622C23.5135 31.164 23.8462 31.0207 24.1569 30.834Z" fill="#255B8C"/>
<path d="M18.6631 29.5848C19.1297 30.2955 19.7893 30.8271 20.5521 31.1296C21.065 30.8182 21.6944 30.513 22.3709 30.3585C24.0713 29.9703 24.93 28.9266 25.9285 28.3973C25.9528 28.3845 25.9757 28.3733 25.9987 28.3619C26.0013 28.3514 26.0046 28.3409 26.0072 28.33C26.2185 27.4818 26.1529 26.6087 25.8284 25.815C24.9346 26.2737 24.0447 26.8125 23.4748 27.3709C22.7939 28.038 20.5919 28.9098 18.6631 29.5848Z" fill="#255B8C"/>
<path d="M25.4543 25.1061C25.1269 24.6087 24.7046 24.1995 24.2186 23.8953C23.0777 24.7373 21.2238 25.9986 20.3812 25.9802C19.6547 25.9645 18.7727 26.3028 18.0535 26.6535C17.9281 27.3692 17.9957 28.0937 18.2474 28.766C19.4618 28.3234 20.8153 27.819 22.2131 26.8104C23.2523 26.0606 24.4746 25.4923 25.4543 25.1061Z" fill="#255B8C"/>
</svg>
