<svg width="20" height="26" viewBox="0 0 20 26" fill="none" xmlns="http://www.w3.org/2000/svg">
<path d="M5.95999 0.74C7.24811 0.56375 8.33061 1.35125 8.84311 2.37562L10.1037 4.89687C10.8031 6.29562 10.4012 7.93625 9.34124 8.96937C8.71499 9.57875 8.08561 10.275 7.72061 10.8887C7.69643 10.9325 7.68889 10.9836 7.69936 11.0325C8.03686 12.8619 9.27624 14.6687 10.3819 15.9644C10.4375 16.0261 10.5101 16.0701 10.5905 16.0908C10.671 16.1116 10.7558 16.1083 10.8344 16.0812L13.3187 15.3044C13.988 15.0953 14.7067 15.1061 15.3694 15.3352C16.0321 15.5643 16.604 15.9997 17.0012 16.5775L18.7994 19.1925C19.2869 19.9019 19.5337 20.865 19.16 21.7906C18.8262 22.6169 18.1806 23.81 17.0062 24.6031C15.7875 25.4256 14.1181 25.7381 11.9337 24.9887C9.49311 24.1519 7.18749 22.0519 5.27561 19.3656C3.35249 16.6637 1.76936 13.2875 0.809361 9.76812C-0.0975142 6.44375 0.45061 4.2075 1.73874 2.76625C2.98186 1.37562 4.76311 0.90375 5.95999 0.74V0.74ZM7.44561 3.07437C7.15999 2.50437 6.65061 2.2225 6.17249 2.28812C5.10936 2.43375 3.77811 2.83 2.90374 3.8075C2.07499 4.735 1.50124 6.3675 2.31624 9.35687C3.23186 12.7119 4.73936 15.9181 6.54874 18.46C8.36936 21.0175 10.4381 22.8237 12.4406 23.5112C14.225 24.1231 15.3719 23.8206 16.1319 23.3081C16.9356 22.765 17.43 21.9019 17.7112 21.2056C17.84 20.8869 17.7844 20.4744 17.5119 20.0781L15.7137 17.4625C15.5057 17.1599 15.2061 16.9318 14.8591 16.8118C14.512 16.6918 14.1355 16.6861 13.785 16.7956L11.3006 17.5725C10.5581 17.8037 9.72186 17.5975 9.19374 16.9787C8.04311 15.6306 6.57686 13.5631 6.16249 11.3162C6.08312 10.895 6.15953 10.4592 6.37749 10.09C6.85124 9.29437 7.60124 8.4825 8.25061 7.85C8.88499 7.23187 9.06499 6.31312 8.70624 5.59562L7.44561 3.075V3.07437Z" fill="white"/>
</svg>
