<svg width="42" height="48" viewBox="0 0 42 48" fill="none" xmlns="http://www.w3.org/2000/svg">
<path fill-rule="evenodd" clip-rule="evenodd" d="M6.6081 0H24.7829C28.4023 0 31.5223 0.61794 34.1011 1.90454C36.661 3.1607 38.6337 4.9301 39.9763 7.2187C41.3342 9.4759 42 12.0578 42 14.9327C42 18.0241 41.341 20.7356 39.9768 23.0249C38.6298 25.3002 36.6486 27.0314 34.0787 28.2244L34.0721 28.2274C31.5017 29.398 28.3928 29.9602 24.7829 29.9602H14.7374V32.2885H25.3998V39.2802H14.7374V48H6.6081V39.2802H0V32.2885H6.6081V29.9602H0V23H6.6081V0ZM8.6081 2V25H2V27.9602H8.6081V34.2885H2V37.2802H8.6081V46H12.7374V37.2802H23.3998V34.2885H12.7374V27.9602H24.7829C28.1946 27.9602 31.0011 27.4276 33.24 26.4087C35.4779 25.3692 37.1348 23.8996 38.256 22.0057L38.2576 22.003C39.4038 20.0804 40 17.7378 40 14.9327C40 12.3757 39.4111 10.1571 38.2599 8.2453L38.2537 8.2351C37.1282 6.3146 35.4638 4.8005 33.2173 3.6987L33.211 3.6955C30.9806 2.5821 28.1852 2 24.7829 2H8.6081ZM12.7374 4.9918H24.7829C27.3178 4.9918 29.4626 5.452 31.1382 6.4604C32.7694 7.4296 33.9909 8.6927 34.7473 10.2595C35.4937 11.762 35.8707 13.3444 35.8707 14.9959C35.8707 16.9585 35.483 18.7157 34.6693 20.2341C33.8596 21.7852 32.5999 22.9695 30.9407 23.7905C29.2696 24.6174 27.1993 25 24.7829 25H12.7374V4.9918ZM14.7374 6.9918V23H24.7829C27.0061 23 28.7453 22.6454 30.0537 21.998C31.3721 21.3456 32.3034 20.4466 32.8985 19.3044L32.9042 19.2935C33.5357 18.1171 33.8707 16.6957 33.8707 14.9959C33.8707 13.6586 33.5676 12.3785 32.9538 11.1446L32.9482 11.1333C32.3854 9.9654 31.4594 8.9772 30.1143 8.1785L30.1089 8.1753C28.8479 7.4157 27.099 6.9918 24.7829 6.9918H14.7374Z" fill="white"/>
</svg>
