<svg width="45" height="23" viewBox="0 0 45 23" fill="none" xmlns="http://www.w3.org/2000/svg">
<path d="M44.107 11.2017C43.0924 9.31638 37.4468 8.3715 33.8579 7.95394C31.7953 5.42856 28.5312 1.52369 27.6909 1.04012C26.5013 0.354821 23.3284 0.210938 20.8765 0.210938C14.1169 0.210938 13.2848 1.04309 12.9718 1.35607L12.7627 1.56374C9.65211 4.63869 7.71858 6.84515 6.87976 8.27953C6.41399 8.31216 5.59742 8.29659 5.15761 8.28917C4.89432 8.28398 4.64957 8.27953 4.44858 8.27953C3.04089 8.27953 2.67154 9.9557 2.38007 13.7122C2.33408 14.3033 2.297 14.8996 2.26585 15.4641H0.9976C0.564467 15.4641 0.25 15.8646 0.25 16.4171V17.8552C0.25 18.4077 0.564467 18.8082 0.996858 18.8082H2.13235C2.15386 19.0686 2.23618 19.3229 2.38971 19.5447C2.66932 19.9445 3.12692 20.1825 3.6142 20.1825H6.66987C7.28842 20.1825 7.79052 19.6812 7.79052 19.0619C7.79052 19.0337 7.78978 19.0063 7.7883 18.9796C7.76531 18.3803 7.2721 17.9027 6.66764 17.9027C6.56603 17.9027 6.46665 17.916 6.37394 17.942H4.40185C4.50198 14.6104 4.76304 11.6363 5.04636 10.5275C5.06935 10.5283 5.09234 10.5283 5.11682 10.529C7.2009 10.5668 8.24517 10.5854 8.66569 9.68869C9.03504 8.90179 10.3189 7.13069 14.338 3.1561L14.5056 2.98996C14.9484 2.77562 17.0109 2.45077 20.8765 2.45077C24.3201 2.45077 26.1394 2.75708 26.5517 2.96994C27.1421 3.4179 29.9805 6.73909 32.4087 9.72207C32.4228 9.73839 32.4398 9.75174 32.4547 9.76731C32.4888 9.80514 32.5229 9.8437 32.5629 9.87559C32.5882 9.89636 32.6163 9.91342 32.643 9.93122C32.6764 9.95421 32.7083 9.97869 32.7439 9.99871C32.7751 10.015 32.8084 10.0269 32.8411 10.041C32.8759 10.0558 32.9093 10.0729 32.9464 10.084C32.9887 10.0974 33.0317 10.1033 33.0754 10.1114C33.1029 10.1166 33.1288 10.1263 33.157 10.1285C37.3986 10.5928 41.6009 11.6022 42.1334 12.2615C42.611 13.1486 42.5599 15.9239 42.3604 17.9405H37.3259C37.2317 17.9145 37.1331 17.9012 37.0322 17.9012C36.427 17.9012 35.9338 18.3803 35.9116 18.981C35.9101 19.007 35.9093 19.0396 35.9093 19.0604C35.9093 19.6797 36.4107 20.1811 37.03 20.1811H43.0316C43.8244 20.1811 44.4748 19.5603 44.5231 18.7786C44.6477 17.7476 45.1423 13.1263 44.107 11.2017ZM1.3714 16.584H2.21097C2.19317 17.0008 2.17908 17.3768 2.16795 17.6876H1.3714V16.584Z" fill="black"/>
<path d="M25.5631 17.9433L25.5564 17.9426C25.4882 17.9329 25.417 17.927 25.3413 17.924C25.2857 17.9218 25.2308 17.9189 25.1885 17.9166C25.035 17.8922 24.8696 17.9018 24.7213 17.9426H18.9741C18.8265 17.9018 18.6604 17.8929 18.5061 17.9166C18.4646 17.9189 18.4097 17.9218 18.3541 17.924C18.2784 17.9278 18.2072 17.9337 18.1397 17.9426L18.133 17.9433C17.1637 18.0687 17.0124 18.688 17.0124 19.0632C17.0124 19.6825 17.5138 20.1839 18.133 20.1839H25.5631C26.1816 20.1839 26.6837 19.6825 26.6837 19.0632C26.6837 18.6872 26.5317 18.0679 25.5631 17.9433ZM17.5701 18.8704C17.5909 18.7161 17.6428 18.5767 17.7155 18.4536C17.6413 18.5789 17.5909 18.7191 17.5701 18.8704ZM25.9799 18.4529C26.0533 18.576 26.1045 18.7154 26.1252 18.8697C26.1052 18.7191 26.0548 18.5782 25.9799 18.4529Z" fill="black"/>
<path d="M11.7718 9.9193H19.1877C19.5801 9.9193 19.8997 9.60038 19.8997 9.21026L19.9168 4.37386C19.9168 3.98226 19.5971 3.6626 19.2041 3.6626L15.7857 3.66853C15.5869 3.66853 15.3963 3.75234 15.2436 3.91996L11.2467 8.72818C11.0561 8.93659 11.0072 9.23845 11.1199 9.49358C11.2334 9.75316 11.4885 9.9193 11.7718 9.9193ZM15.9778 4.78845L18.7954 4.784L18.7806 8.79864H12.6448L15.9778 4.78845Z" fill="black"/>
<path d="M21.5203 9.91956H28.9696C29.2395 9.91956 29.4902 9.76307 29.6119 9.51535C29.729 9.26912 29.6971 8.98284 29.5369 8.77962L25.9532 3.99068C25.8197 3.81936 25.6106 3.71701 25.397 3.71701L21.4624 3.68066C21.0708 3.68066 20.7512 3.99958 20.7512 4.3986L20.8075 9.20831C20.8083 9.60065 21.1272 9.91956 21.5203 9.91956ZM25.1863 4.83618L28.153 8.79965H21.9245L21.8778 4.80503L25.1863 4.83618Z" fill="black"/>
<path d="M12.4022 15.2578C10.3248 15.2578 8.63605 16.9466 8.63605 19.0233C8.63605 21.0992 10.3248 22.7887 12.4022 22.7887C14.4782 22.7887 16.1669 21.0992 16.1669 19.0233C16.1669 16.9473 14.4782 15.2578 12.4022 15.2578ZM12.4022 21.295C11.1496 21.295 10.1305 20.2759 10.1305 19.024C10.1305 17.7721 11.1496 16.753 12.4022 16.753C13.6542 16.753 14.6732 17.7721 14.6732 19.024C14.6732 20.2759 13.6534 21.295 12.4022 21.295Z" fill="black"/>
<path d="M31.4571 15.2578C29.3804 15.2578 27.6909 16.9466 27.6909 19.0233C27.6909 21.0992 29.3804 22.7887 31.4571 22.7887C33.533 22.7887 35.2218 21.0992 35.2218 19.0233C35.2218 16.9473 33.533 15.2578 31.4571 15.2578ZM31.4571 21.295C30.2044 21.295 29.1854 20.2759 29.1854 19.024C29.1854 17.7721 30.2044 16.753 31.4571 16.753C32.709 16.753 33.7281 17.7721 33.7281 19.024C33.7281 20.2759 32.709 21.295 31.4571 21.295Z" fill="black"/>
</svg>
