<svg width="39" height="33" viewBox="0 0 39 33" fill="none" xmlns="http://www.w3.org/2000/svg">
<path d="M20.4769 23.3093C18.8539 25.2126 16.2423 24.9908 14.3372 24.4712C12.0558 23.847 7.15338 19.9825 5.87685 17.8008C3.17677 13.1881 3.59169 6.80106 3.84712 4.5402C5.91299 3.92966 11.7125 2.55719 17.5618 4.27729C19.9106 4.9682 24.1725 9.37406 25.4141 11.6387C27.042 14.6135 26.3779 16.3928 24.879 18.1496C24.3706 18.7471 24.441 19.6436 25.0385 20.1526C25.6347 20.6609 26.5306 20.5906 27.0402 19.9943C28.6587 18.0973 30.5078 15.0259 27.9055 10.2749C26.3866 7.50132 21.6064 2.5061 18.3649 1.55229C10.2086 -0.846263 2.39055 2.01144 2.06098 2.13417C1.58874 2.3111 1.24547 2.72477 1.1595 3.22193C1.09221 3.60445 -0.422923 12.661 3.42473 19.2368C5.08315 22.0683 10.5917 26.3913 13.5871 27.2106C14.721 27.5208 15.8019 27.6741 16.8155 27.6741C19.2078 27.6741 21.2176 26.8187 22.638 25.1528C23.1477 24.5566 23.0773 23.6601 22.4798 23.1498C21.8823 22.6408 20.9871 22.7119 20.4769 23.3093Z" fill="black"/>
<path d="M37.5913 30.9919C33.8826 30.4032 29.7402 26.4727 29.7147 26.4496C29.3901 26.1176 21.7303 18.2883 19.3025 16.0387C16.8797 13.7915 15.6822 13.1112 13.9646 13.0053C13.564 12.981 13.237 13.2788 13.2127 13.6707C13.1884 14.0613 13.4862 14.3983 13.878 14.4226C15.0817 14.4968 15.9676 14.8824 18.3375 17.0791C20.7391 19.3069 28.6207 27.3623 28.7154 27.4595C28.8979 27.6333 33.2166 31.7352 37.3683 32.3949C37.4063 32.4011 37.4436 32.4036 37.4804 32.4036C37.8237 32.4036 38.1252 32.1544 38.1813 31.8049C38.2423 31.4162 37.9782 31.0524 37.5913 30.9919Z" fill="black"/>
</svg>
