<svg width="41" height="41" viewBox="0 0 41 41" fill="none" xmlns="http://www.w3.org/2000/svg">
<path d="M20.5764 13.6973C16.9253 13.6973 13.9564 16.6669 13.9564 20.3173C13.9564 23.9683 16.9253 26.9379 20.5764 26.9379C24.2274 26.9379 27.1964 23.9676 27.1964 20.3173C27.1964 16.6669 24.2274 13.6973 20.5764 13.6973ZM20.5764 24.9192C18.0381 24.9192 15.9744 22.8548 15.9744 20.3173C15.9744 17.7797 18.0381 15.7153 20.5764 15.7153C23.1133 15.7153 25.1783 17.7797 25.1783 20.3173C25.1783 22.8548 23.1133 24.9192 20.5764 24.9192Z" fill="black"/>
<path d="M12.7894 14.3095C12.9872 14.5072 13.2443 14.6051 13.5034 14.6051C13.7612 14.6051 14.0197 14.5072 14.2161 14.3095C14.611 13.9153 14.611 13.2763 14.2161 12.8821L8.00665 6.67261C7.61179 6.2784 6.97283 6.2784 6.57862 6.67261C6.18441 7.06682 6.18441 7.70578 6.57862 8.09999L12.7894 14.3095Z" fill="black"/>
<path d="M28.0591 26.7258C27.6649 26.3316 27.0266 26.3316 26.6311 26.7258C26.2369 27.12 26.2369 27.759 26.6311 28.1532L32.8419 34.3633C33.0383 34.5604 33.2968 34.659 33.5559 34.659C33.8137 34.659 34.0722 34.5604 34.2686 34.3633C34.6635 33.9691 34.6635 33.3302 34.2686 32.936L28.0591 26.7258Z" fill="black"/>
<path d="M12.8964 26.8333L6.68696 33.0434C6.29209 33.4376 6.29209 34.0759 6.68696 34.4708C6.88341 34.6679 7.14186 34.7664 7.39967 34.7664C7.65812 34.7664 7.91723 34.6679 8.11368 34.4708L14.3245 28.2606C14.7187 27.8664 14.7187 27.2281 14.3245 26.8333C13.9302 26.4397 13.2913 26.4397 12.8964 26.8333Z" fill="black"/>
<path d="M27.4535 14.7125C27.7113 14.7125 27.9698 14.6146 28.1662 14.4169L34.377 8.20742C34.7712 7.8132 34.7712 7.1749 34.377 6.78003C33.9828 6.38582 33.3445 6.38582 32.949 6.78003L26.7395 12.9902C26.3453 13.3844 26.3453 14.0227 26.7395 14.4169C26.936 14.614 27.1951 14.7125 27.4535 14.7125Z" fill="black"/>
<path d="M11.721 20.4997C11.721 19.9424 11.27 19.4907 10.7113 19.4907H1.92966C1.37098 19.4907 0.919983 19.9424 0.919983 20.4997C0.919983 21.0571 1.37098 21.5088 1.92966 21.5088H10.7113C11.2693 21.5088 11.721 21.0571 11.721 20.4997Z" fill="black"/>
<path d="M39.0703 19.4907H30.2887C29.7313 19.4907 29.279 19.9417 29.279 20.4997C29.279 21.0578 29.7313 21.5088 30.2887 21.5088H39.0703C39.629 21.5088 40.08 21.0571 40.08 20.4997C40.08 19.9424 39.629 19.4907 39.0703 19.4907Z" fill="black"/>
<path d="M20.6514 29.2788C20.094 29.2788 19.643 29.7305 19.643 30.2878V39.0708C19.643 39.6281 20.094 40.0798 20.6514 40.0798C21.2094 40.0798 21.661 39.6281 21.661 39.0708V30.2878C21.661 29.7311 21.2101 29.2788 20.6514 29.2788Z" fill="black"/>
<path d="M20.6514 11.7209C21.2094 11.7209 21.661 11.2693 21.661 10.7119V1.92894C21.661 1.37157 21.2101 0.919922 20.6514 0.919922C20.094 0.919922 19.643 1.37157 19.643 1.92894V10.7119C19.6437 11.2686 20.0947 11.7209 20.6514 11.7209Z" fill="black"/>
</svg>
